<?xml version="1.0" encoding="iso-8859-1"?>
<!-- Generator: Adobe Illustrator 27.5.0, SVG Export Plug-In . SVG Version: 6.00 Build 0)  -->
<svg version="1.1" id="Layer_1" xmlns="http://www.w3.org/2000/svg" xmlns:xlink="http://www.w3.org/1999/xlink" x="0px" y="0px"
	 viewBox="0 0 512 512" style="enable-background:new 0 0 512 512;" xml:space="preserve">
<g>
	<g>
		<path d="M435.018,122.425h-0.064c-5.806,0.033-13.111,0.063-18.992,0.071V46.267c0-6.075-4.925-11-11-11s-11,4.925-11,11v87.158
			c0,5.345,3.843,9.917,9.108,10.836c0.806,0.141,1.396,0.244,10.894,0.244c4.602,0,11.295-0.024,21.115-0.08
			c6.075-0.035,10.972-4.987,10.938-11.063C445.982,127.308,441.064,122.425,435.018,122.425z"/>
		<path d="M501.002,122.425h-0.064c-5.806,0.033-13.111,0.063-18.992,0.071V46.267c0-6.075-4.925-11-11-11s-11,4.925-11,11v87.158
			c0,5.346,3.843,9.917,9.109,10.836c0.806,0.141,1.395,0.244,10.891,0.244c4.602,0,11.295-0.024,21.117-0.08
			c6.075-0.035,10.972-4.987,10.938-11.063C511.966,127.308,507.048,122.425,501.002,122.425z"/>
		<path d="M176.36,112.701c-4.686-3.866-11.62-3.201-15.486,1.484c-0.743,0.901-1.543,1.741-2.381,2.499
			c-4.263,3.859-9.703,5.815-16.17,5.815c-17.597,0-31.914-14.631-31.914-32.616c0-17.984,14.316-32.616,31.914-32.616
			c6.367,0,12.511,1.908,17.768,5.517c5.008,3.439,11.855,2.166,15.294-2.842c3.438-5.008,2.166-11.855-2.842-15.294
			c-8.938-6.137-19.388-9.38-30.22-9.38c-29.728,0-53.914,24.5-53.914,54.616c0,30.116,24.186,54.616,53.914,54.616
			c11.922,0,22.62-3.979,30.932-11.503c1.624-1.469,3.167-3.087,4.589-4.809C181.71,123.501,181.045,116.568,176.36,112.701z"/>
		<path d="M52.223,80.27c-10.488-3.932-20.256-8.213-23.31-9.571c-2.289-1.891-2.195-4.556-2.033-5.67
			c0.221-1.52,1.313-5.232,6.676-6.874c11.891-3.639,22.969,5.258,23.256,5.493c4.62,3.892,11.521,3.332,15.449-1.269
			c3.946-4.619,3.401-11.563-1.218-15.508c-0.816-0.697-20.267-16.996-43.928-9.752C15.228,40.758,6.795,50.243,5.109,61.871
			C3.518,72.839,8.196,83.406,17.318,89.45c0.488,0.323,1,0.607,1.533,0.849c0.497,0.225,12.328,5.577,25.65,10.571
			c3.736,1.401,12.3,5.361,11.122,11.859c-0.871,4.802-6.612,9.77-14.713,9.77c-8.422,0-16.534-3.458-21.699-9.251
			c-4.042-4.533-10.996-4.932-15.531-0.89c-4.534,4.043-4.933,10.997-0.89,15.531c9.274,10.4,23.524,16.61,38.12,16.61
			c18.144,0,33.435-11.71,36.36-27.845C79.485,104.434,74.069,88.46,52.223,80.27z"/>
		<path d="M238.561,101.142c14.149-4.218,24.469-17.059,24.469-32.205c0-18.566-15.507-33.67-34.568-33.67h-22.835
			c-6.075,0-11,4.925-11,11v87.232c0,6.075,4.925,11,11,11s11-4.925,11-11v-24.08l27.088,31.281c2.175,2.512,5.239,3.799,8.32,3.799
			c2.552,0,5.116-0.883,7.196-2.685c4.593-3.977,5.092-10.924,1.115-15.516L238.561,101.142z M216.627,57.267h11.835
			c6.813,0,12.568,5.344,12.568,11.67s-5.755,11.671-12.568,11.671c-2.899,0-7.597,0.021-11.835,0.044V57.267z"/>
		<path d="M327.9,35.267c-29.729,0-53.914,24.5-53.914,54.616c0,30.116,24.186,54.616,53.914,54.616
			c29.728,0,53.914-24.5,53.914-54.616C381.814,59.767,357.628,35.267,327.9,35.267z M327.9,122.499
			c-17.598,0-31.914-14.631-31.914-32.616c0-17.984,14.316-32.616,31.914-32.616c17.597,0,31.914,14.631,31.914,32.616
			C359.814,107.867,345.497,122.499,327.9,122.499z"/>
	</g>
	<g>
		<path style="fill:#33CCCC;" d="M62.299,230.597l171.773,105.399c6.601,4.05,14.184,6.191,21.929,6.191
			c7.745,0,15.328-2.141,21.928-6.191l171.772-105.399c9.544-5.856,16.237-15.079,18.844-25.968s0.816-22.142-5.042-31.685
			c-12.09-19.698-37.957-25.888-57.659-13.799l-149.844,91.944l-149.845-91.944c-19.7-12.086-45.566-5.897-57.659,13.8
			c-5.857,9.543-7.648,20.795-5.041,31.685C46.062,215.518,52.755,224.74,62.299,230.597z M67.245,184.454
			c3.757-6.119,10.311-9.495,17.016-9.495c3.552,0,7.146,0.948,10.389,2.937l155.598,95.475c3.529,2.165,7.977,2.165,11.506,0
			l155.596-95.474c9.365-5.746,21.659-2.803,27.405,6.557c2.783,4.534,3.633,9.88,2.395,15.054
			c-1.239,5.174-4.418,9.556-8.954,12.339L266.423,317.245c-3.137,1.925-6.741,2.942-10.422,2.942
			c-3.681,0-7.286-1.018-10.423-2.942L73.805,211.846c-4.536-2.783-7.715-7.165-8.954-12.339
			C63.612,194.334,64.463,188.987,67.245,184.454z"/>
		<path style="fill:#33CCCC;" d="M405.844,293.691l-149.844,91.944l-149.845-91.945c-19.701-12.087-45.566-5.896-57.659,13.8
			c-5.857,9.543-7.648,20.796-5.041,31.685c2.607,10.889,9.299,20.111,18.844,25.967l171.773,105.4
			c6.601,4.05,14.184,6.19,21.928,6.19c7.745,0,15.327-2.141,21.928-6.191l171.772-105.399c9.545-5.856,16.237-15.079,18.844-25.968
			c2.607-10.89,0.816-22.143-5.042-31.686C451.413,287.794,425.548,281.602,405.844,293.691z M447.15,334.053
			c-1.239,5.174-4.418,9.556-8.954,12.339L266.424,451.791c-3.137,1.925-6.742,2.942-10.423,2.942
			c-3.681,0-7.286-1.018-10.423-2.942l-171.773-105.4c-4.536-2.783-7.715-7.165-8.954-12.338c-1.238-5.173-0.388-10.52,2.395-15.053
			c3.757-6.119,10.311-9.495,17.016-9.495c3.552,0,7.146,0.948,10.389,2.937l155.598,95.475c3.529,2.166,7.977,2.166,11.506,0
			l155.596-95.474c9.365-5.745,21.659-2.803,27.405,6.557C447.537,323.533,448.388,328.88,447.15,334.053z"/>
	</g>
</g>
<g>
</g>
<g>
</g>
<g>
</g>
<g>
</g>
<g>
</g>
<g>
</g>
<g>
</g>
<g>
</g>
<g>
</g>
<g>
</g>
<g>
</g>
<g>
</g>
<g>
</g>
<g>
</g>
<g>
</g>
</svg>
